<svg height="512" viewBox="0 0 56 59" width="512" xmlns="http://www.w3.org/2000/svg">
    <g id="Page-1" fill="none" fill-rule="evenodd">
        <g id="034---Babydoll" fill-rule="nonzero">
            <path id="Shape" d="m25.632 29.379c-1.076673 2.3963853-1.6329086 4.9938559-1.632 7.621v18c.0055425 1.9506824-1.4001528 3.6193928-3.3234308 3.9452671-1.9232781.3258743-3.8002151-.7866369-4.4375692-2.6302671-.9610931.6505934-2.1580616.8498688-3.2780986.5457489-1.120037-.3041198-2.0518411-1.0814135-2.5519014-2.1287489-1.08857525.421743-2.30763552.342721-3.33265325-.2160292-1.02501772-.5587503-1.75197468-1.5405272-1.98734675-2.6839708-.35339415.1064889-.71994353.1630365-1.089.168-2.209139 0-4-1.790861-4-4s1.790861-4 4-4c2-3 4-7 4-11v-11.667h17.632z" fill="#ec1c1c"/>
            <path id="Shape" d="m30.321 29.289c1.109741 2.4189943 1.6825316 5.0496007 1.679 7.711v18c-.0055425 1.9506824 1.4001528 3.6193928 3.3234308 3.9452671 1.9232781.3258743 3.8002151-.7866369 4.4375692-2.6302671.9610931.6505934 2.1580616.8498688 3.2780986.5457489 1.120037-.3041198 2.0518411-1.0814135 2.5519014-2.1287489 1.0885752.421743 2.3076355.342721 3.3326532-.2160292 1.0250178-.5587503 1.7519747-1.5405272 1.9873468-2.6839708.3533942.1064889.7199435.1630365 1.089.168 2.209139 0 4-1.790861 4-4s-1.790861-4-4-4c-2-3-4-7-4-11v-11.667h-17.717z" fill="#ec1c1c"/>
            <path id="Shape" d="m24 50.27v4.73c.0045892 1.9503722-1.4018166 3.6180746-3.3249832 3.9427329-1.9231666.3246582-3.7990959-.7889386-4.4350168-2.6327329-.6591587.4523705-1.4405503.693067-2.24.69-1.5338732-.0024847-2.9300969-.8853336-3.59-2.27-.44915872.1767667-.92731249.2683281-1.41.27-1.88816083-.0013879-3.51820703-1.3229344-3.91-3.17-.35356595.1074906-.72049328.1647178-1.09.17-2.209139 0-4-1.790861-4-4s1.790861-4 4-4c-.04282547.9084173.28954441 1.7945167.91923287 2.4506785.62968846.6561619 1.50135701 1.0247211 2.41076713 1.0193215.30969846-.0068118.61655194-.060764.91-.16.23537595 1.6412258 1.60373996 2.8836668 3.26 2.96.4026329-.0056938.8002009-.0906442 1.17-.25.4896171 1.2387607 1.668651 2.0680146 3 2.11.6741134.0006011 1.3289821-.22473 1.86-.64.3819098 1.4354241 1.6557081 2.4536515 3.14 2.51 1.9468909-.1159927 3.4346545-1.7824667 3.33-3.73z" fill="#f84949"/>
            <path id="Shape" d="m56 48c0 2.209139-1.790861 4-4 4-.3695067-.0052822-.7364341-.0625094-1.09-.17-.391793 1.8470656-2.0218392 3.1686121-3.91 3.17-.4826875-.0016719-.9608413-.0932333-1.41-.27-.6599031 1.3846664-2.0561268 2.2675153-3.59 2.27-.7994497.003067-1.5808413-.2376295-2.24-.69-.6359209 1.8437943-2.5118502 2.9573911-4.4350168 2.6327329-1.9231666-.3246583-3.3295724-1.9923607-3.3249832-3.9427329v-4.73c-.1046545 1.9475333 1.3831091 3.6140073 3.33 3.73 1.4842919-.0563485 2.7580902-1.0745759 3.14-2.51.5310179.41527 1.1858866.6406011 1.86.64 1.331349-.0419854 2.5103829-.8712393 3-2.11.3697991.1593558.7673671.2443062 1.17.25 1.65626-.0763332 3.024624-1.3187742 3.26-2.96.2934481.099236.6003015.1531882.91.16.9094101.0053996 1.7810787-.3631596 2.4107671-1.0193215.6296885-.6561618.9620584-1.5422612.9192329-2.4506785 2.209139 0 4 1.790861 4 4z" fill="#f84949"/>
            <g fill="#c93838">
                <path id="Shape" d="m16.432 11.3c-.430873-.0000395-.813275-.2760621-.949-.685l-.432-1.295c-.7589639-2.70627788-1.1131359-5.50999905-1.051-8.32 0-.55228475.4477153-1 1-1s1 .44771525 1 1c-.0520706 2.59415974.2675045 5.18241458.949 7.686l.431 1.293c.1019193.3049302.0510086.6402668-.136821.9012074-.1878297.2609406-.489667.4156558-.811179.4157926z"/>
                <path id="Shape" d="m39.325 12.025c-.3214436.0000774-.6233283-.1543712-.8113424-.4150947-.1880141-.2607234-.2392338-.5959327-.1376576-.9009053l.675-2.025c.6818604-2.50283154 1.0014437-5.09047942.949-7.684 0-.55228475.4477153-1 1-1s1 .44771525 1 1c.0617404 2.80866463-.292428 5.61100881-1.051 8.316l-.675 2.025c-.1360719.4085428-.5183926.6841037-.949.684z"/>
                <path id="Shape" d="m11 16c-1.30021375.4540633-2.63907574.7887788-4 1 0 0 0 4 1 6 3.6300964.656375 7.3110507.9910072 11 1z"/>
                <path id="Shape" d="m45 16c1.3002138.4540633 2.6390757.7887788 4 1 0 0 0 4-1 6-3.6300964.656375-7.3110507.9910072-11 1z"/>
            </g>
            <path id="Shape" d="m28 27c-1.408 1.408-1.825 3.806-1.948 5.1-.0486279.5119641-.4797368.9023042-.994.9h-2.011c-.2812473-.001532-.5490916-.1203817-.7389423-.3278886-.1898507-.2075068-.2844763-.4848366-.2610577-.7651114.1191961-2.4239399 1.2217613-4.694437 3.053-6.287z" fill="#f84949"/>
            <path id="Shape" d="m28 27c1.408 1.408 1.825 3.806 1.948 5.1.0486279.5119641.4797368.9023042.994.9h2.011c.2812473-.001532.5490916-.1203817.7389423-.3278886.1898507-.2075068.2844763-.4848366.2610577-.7651114-.1191961-2.4239399-1.2217613-4.694437-3.053-6.287z" fill="#f84949"/>
            <path id="Shape" d="m25 18.75v6.25c-.0034224.2109419.0304307.420831.1.62.2700523.8211755 1.035564 1.3771788 1.9 1.38h2c.864436-.0028212 1.6299477-.5588245 1.9-1.38.0695693-.199169.1034224-.4090581.1-.62v-6.25z" fill="#ce1919"/>
            <path id="Shape" d="m28 19s0-10-11-10c-1.4901227 2.7261084-3.5338645 5.110474-6 7 0 0 1 8 8 8 8 0 9-5 9-5z" fill="#f30a0a"/>
            <path id="Shape" d="m28 19s0-10 11-10c1.4901227 2.7261084 3.5338645 5.110474 6 7 0 0-1 8-8 8-8 0-9-5-9-5z" fill="#f30a0a"/>
        </g>
    </g>
</svg>
