<svg height="512" viewBox="0 0 42 59" width="512" xmlns="http://www.w3.org/2000/svg">
    <g id="Page-1" fill="none" fill-rule="evenodd">
        <g id="050---Bra-and-Pants" fill-rule="nonzero">
            <g fill="#fac1c1">
                <path id="Shape" d="m5.951 14.9c-.38060245.0022675-.72949383-.2117192-.9-.552l-.951-1.9c-.08-.173-2.1-4.294-2.1-11.448 0-.55228475.44771525-1 1-1s1 .44771525 1 1c0 6.687 1.875 10.515 1.895 10.553l.95 1.9c.1548588.3099025.13828539.6778792-.04380547.9726057-.18209087.2947265-.50375442.4742093-.85019453.4743943z"/>
                <path id="Shape" d="m36.075 14.848c-.3465502-.0003581-.6682099-.1801149-.8501201-.4750824s-.1981346-.6630901-.0428799-.9729176l.923-1.847c1.3585797-3.34763428 2.0039895-6.94183462 1.895-10.553 0-.55228475.4477153-1 1-1s1 .44771525 1 1c0 7.154-2.02 11.275-2.1 11.447l-.929 1.853c-.1709787.3374323-.517725.5495048-.896.548z"/>
                <path id="Shape" d="m38.0000233 23.25-.0000233 9.75c.0053103 1.5590918-.8988679 2.9781589-2.3142162 3.6320584s-3.0820157.4225788-4.2657838-.5920584c-.6820336 1.1609838-1.905928 1.8972562-3.25115 1.9558319-1.3452219.0585757-2.6284825-.5685262-3.40885-1.6658319-.5576722 1.5994247-2.0661412 2.6709989-3.76 2.6709989s-3.2023278-1.0715742-3.76-2.6709989c-.7803675 1.0973057-2.0636281 1.7244076-3.40885 1.6658319-1.345222-.0585757-2.5691164-.7948481-3.25115-1.9558319-1.18376811 1.0146372-2.85043548 1.2459579-4.26578381.5920584-1.41534834-.6538995-2.3195265-2.0729666-2.31421619-3.6320584l-.00002326-9.75z"/>
            </g>
            <path id="Shape" d="m4 12c-2.54918124 2.2970982-4.00315167 5.5685316-4 9 0 5.8 3.288 9 9.043 9 3.6817595-.1414935 7.2005817-1.5551009 9.957-4 0 0-.76-9.154-6.753-12-2.55031835-1.314404-5.37789185-2.0001257-8.247-2z" fill="#fad1d1"/>
            <path id="Shape" d="m38 12c2.5491812 2.2970982 4.0031517 5.5685316 4 9 0 5.8-3.288 9-9.043 9-3.6817595-.1414935-7.2005817-1.5551009-9.957-4 0 0 .76-9.154 6.753-12 2.5503184-1.314404 5.3778919-2.0001257 8.247-2z" fill="#fad1d1"/>
            <path id="Shape" d="m34 46c-3.3706098.3108411-6.1773108 2.7165848-7 6-1 5-2 6-2 6s-1 1-4 1-4-1-4-1-1-1-2-6c-.8226892-3.2834152-3.6293902-5.6891589-7-6z" fill="#fad1d1"/>
            <path id="Shape" d="m41 45h-1.651c.4170779-.9458702.6385182-1.9663325.651-3 .0902016-.8199974-.1967506-1.6366029-.7800738-2.2199262-.5833233-.5833232-1.3999288-.8702754-2.2199262-.7800738-.8199974-.0902016-1.6366029.1967506-2.2199262.7800738-.5833232.5833233-.8702754 1.3999288-.7800738 2.2199262.0124818 1.0336675.2339221 2.0541298.651 3h-27.3c.41639016-.9460141.63714892-1.9664706.649-3 .09020157-.8199974-.19675061-1.6366029-.78007384-2.2199262-.58332323-.5833232-1.39992881-.8702754-2.21992616-.7800738-.81999735-.0902016-1.63660293.1967506-2.21992616.7800738-.58332323.5833233-.87027541 1.3999288-.78007384 2.2199262.01248182 1.0336675.23392213 2.0541298.651 3h-1.651c-.55228475 0-1 .4477153-1 1s.44771525 1 1 1h1.651c-.41707787.9458702-.63851818 1.9663325-.651 3-.09020157.8199974.19675061 1.6366029.78007384 2.2199262.58332323.5833232 1.39992881.8702754 2.21992616.7800738.81999735.0902016 1.63660293-.1967506 2.21992616-.7800738.58332323-.5833233.87027541-1.3999288.78007384-2.2199262-.01248182-1.0336675-.23392213-2.0541298-.651-3h27.3c-.4163902.9460141-.6371489 1.9664706-.649 3-.0902016.8199974.1967506 1.6366029.7800738 2.2199262.5833233.5833232 1.3999288.8702754 2.2199262.7800738.8199974.0902016 1.6366029-.1967506 2.2199262-.7800738.5833232-.5833233.8702754-1.3999288.7800738-2.2199262-.0124818-1.0336675-.2339221-2.0541298-.651-3h1.651c.5522847 0 1-.4477153 1-1s-.4477153-1-1-1zm-4-4c.8 0 1 .118 1 1 .0159447 1.0767288-.3369241 2.1265134-1 2.975-.6630759-.8484866-1.0159447-1.8982712-1-2.975 0-.882.2-1 1-1zm-32 0c.8 0 1 .118 1 1 .01594471 1.0767288-.33692406 2.1265134-1 2.975-.66307594-.8484866-1.01594471-1.8982712-1-2.975 0-.882.2-1 1-1zm0 10c-.8 0-1-.118-1-1-.01594471-1.0767288.33692406-2.1265134 1-2.975.66307594.8484866 1.01594471 1.8982712 1 2.975 0 .882-.2 1-1 1zm32 0c-.8 0-1-.118-1-1-.0159447-1.0767288.3369241-2.1265134 1-2.975.6630759.8484866 1.0159447 1.8982712 1 2.975 0 .882-.2 1-1 1z" fill="#fbe2e1"/>
            <path id="Shape" d="m24.39 20.38c-.7130978 1.8025758-1.1806186 3.6928395-1.39 5.62-.5389934-.5436002-1.2417238-.8949654-2-1-.7582762.1050346-1.4610066.4563998-2 1-.2093814-1.9271605-.6769022-3.8174242-1.39-5.62 1.0698159.4562504 2.2279499.6680625 3.39.62 1.1620501.0480625 2.3201841-.1637496 3.39-.62z" fill="#ececec"/>
        </g>
    </g>
</svg>
