<svg id="flat" height="512" viewBox="0 0 512 512" width="512" xmlns="http://www.w3.org/2000/svg">
    <path d="m222 361.919h-14l-24 .361v-48.361h48v38a10 10 0 0 1 -10 10z" fill="#fad1d1"/>
    <path d="m142 312-38.186-.124.186-47.876h48v38a10 10 0 0 1 -10 10z" fill="#fad1d1"/>
    <g fill="#fad1d1">
        <path d="m80 152-14.002 21.003 26.699 24.025 19.303-13.028z"/>
        <path d="m432 152 13.917 18.229-26.67 28.538-19.247-14.767z"/>
        <path d="m296.254 184h112v32h-112z"/>
    </g>
    <path d="m424 464h-48.412a8 8 0 0 1 -7.97-7.307l-15.364-176.693-15.365 176.693a8 8 0 0 1 -7.97 7.307h-48.411a8 8 0 0 1 -8-8.25l7.257-232.25a16 16 0 0 1 15.997-15.5h112.984a16 16 0 0 1 15.992 15.5l7.262 232.25a8 8 0 0 1 -8 8.25z" fill="#fbc2c2"/>
    <path d="m280.254 464h48v24h-48z" fill="#fad1d1"/>
    <path d="m376.254 464h48v24h-48z" fill="#fad1d1"/>
    <path d="m380.48 280 1 16h-27.84l1.39 16h27.45l1 16h-27.05l1.39 16h26.66l1 16h-26.27l1.39 16h25.88l1 16h-25.49l1.39 16h25.1l1 16h-24.7l1.39 16h24.31l1.51 24 .03.5a7.99 7.99 0 0 0 7.97 7.5 4.349 4.349 0 0 0 .51-.02 7.992 7.992 0 0 0 7.5-7.98c0-.17-.01-.33-.02-.5l-1.46-23.5h24.99l-.5-16h-25.49l-1-16h25.99l-.5-16h-26.49l-1-16h26.99l-.5-16h-27.49l-1-16h27.99l-.5-16h-28.49l-1-16h28.99l-.5-16h-29.49l-1-16h29.99l-.5-16h-30.49l-1-16h30.99l-.5-16h-31.49l-1.51-24h-16.01c0 .17.01.33.02.5l1.46 23.5h-17.23v-24h-16v24h-17.73l1.46-23.5c.01-.17.02-.33.02-.5h-16.01l-1.51 24h-30.98l-.5 16h30.48l-1 16s-29.42.07-29.98.19l-.49 15.49c.71.21 29.47.32 29.47.32l-1 16h-28.98l-.5 16h28.48l-1 16h-27.98l-.5 16h27.48l-1 16h-26.98l-.5 16h26.48l-1 16h-25.98l-.5 16h25.48l-1 16h-24.98l-.5 16h24.48l-1.46 23.5c-.01.17-.02.33-.02.5a7.992 7.992 0 0 0 7.5 7.98 4.349 4.349 0 0 0 .51.02 7.99 7.99 0 0 0 7.97-7.5l.03-.5 1.51-24h24.82l1.39-16h-25.21l1-16h25.6l1.39-16h-25.99l1-16h26.38l1.4-16h-26.78l1-16h27.17l1.39-16h-27.56l1-16h27.95l1.39-16h-28.34l1-16zm-36.23-16h-19.73l1-16h18.73zm16 0v-16h18.23l1 16z" fill="#fad1d1"/>
    <path d="m208 349.92v92l-31.78 37.08a25.783 25.783 0 0 1 -39.38-33.29l23.16-27.79v-68a4 4 0 0 1 4-4h40a4 4 0 0 1 4 4z" fill="#ebebeb"/>
    <path d="m192 377.92a8 8 0 0 1 -8 8h-24v-16h24a8 8 0 0 1 8 8z" fill="#fad1d1"/>
    <path d="m128 300v92l-31.78 37.08a25.783 25.783 0 0 1 -39.38-33.29l23.16-27.79v-68a4 4 0 0 1 4-4h40a4 4 0 0 1 4 4z" fill="#ebebeb"/>
    <path d="m112 328a8 8 0 0 1 -8 8h-24v-16h24a8 8 0 0 1 8 8z" fill="#fad1d1"/>
    <path d="m432 152-32 32-72-72v88a16 16 0 0 1 -16 16h-112a16 16 0 0 1 -16-16v-88l-72 72-32-32 92.59-113.96a38.016 38.016 0 0 1 29.5-14.04h107.82a38.016 38.016 0 0 1 29.5 14.04z" fill="#ebebeb"/>
    <path d="m240 24v24l-20.55 13.7a85.365 85.365 0 0 0 -35.45 50.3l-72 72-32-32 92.59-113.96a38.016 38.016 0 0 1 29.5-14.04z" fill="#fbc2c2"/>
    <path d="m432 152-32 32-72-72a85.365 85.365 0 0 0 -35.45-50.3l-20.55-13.7-.69-24h38.6a38.016 38.016 0 0 1 29.5 14.04z" fill="#fbc2c2"/>
    <path d="m200 216h112v24h-112z" fill="#fbc2c2"/>
    <path d="m232 24h48a0 0 0 0 1 0 0v8a24 24 0 0 1 -24 24 24 24 0 0 1 -24-24v-8a0 0 0 0 1 0 0z" fill="#fad1d1"/>
</svg>
