<?xml version="1.0" encoding="iso-8859-1"?>
<!-- Generator: Adobe Illustrator 19.0.0, SVG Export Plug-In . SVG Version: 6.00 Build 0)  -->
<svg xmlns="http://www.w3.org/2000/svg" xmlns:xlink="http://www.w3.org/1999/xlink" version="1.1" id="Capa_1" x="0px" y="0px" viewBox="0 0 455 455" style="enable-background:new 0 0 455 455;" xml:space="preserve" width="512" height="512">
<g>
	<path style="fill:#FF6288;" d="M77.498,50l10,25l-10,25c-13.81,0-25-11.19-25-25S63.688,50,77.498,50z"/>
	<path style="fill:#f8c1c1;" d="M77.498,0l10,25l-10,25c-13.81,0-25-11.19-25-25S63.688,0,77.498,0z"/>
	<polygon style="fill:#FFA4A9;" points="77.498,0 77.498,100 92.498,120 92.498,0  "/>
	<path style="fill:#FF6288;" d="M377.502,50l-10,25l10,25c13.81,0,25-11.19,25-25S391.312,50,377.502,50z"/>
	<path style="fill:#f8c1c1;" d="M377.502,0l-10,25l10,25c13.81,0,25-11.19,25-25S391.312,0,377.502,0z"/>
	<polygon style="fill:#FFA4A9;" points="377.502,0 377.502,100 362.502,120 362.502,0  "/>
	<path style="fill:#FF6288;" d="M177.5,300l-25,20l-25-20c0-13.81,11.19-25,25-25S177.5,286.19,177.5,300z"/>
	<path style="fill:#FF6288;" d="M277.5,300l-25,20l-25-20c0-13.81,11.19-25,25-25S277.5,286.19,277.5,300z"/>
	<path style="fill:#FF6288;" d="M352.5,275c13.81,0,25,11.19,25,25l-25,20l-25-20C327.5,286.19,338.69,275,352.5,275z"/>
	<path style="fill:#f8c1c1;" d="M327.5,300l-25,20l-25-20c0-13.81,11.19-25,25-25S327.5,286.19,327.5,300z"/>
	<path style="fill:#f8c1c1;" d="M227.5,300l-25,20l-25-20c0-13.81,11.19-25,25-25S227.5,286.19,227.5,300z"/>
	<path style="fill:#f8c1c1;" d="M127.5,300l-25,20l-25-20c0-13.81,11.19-25,25-25S127.5,286.19,127.5,300z"/>
	<path style="fill:#FFA4A9;" d="M377.499,300v55c-10.35,0-20.39,1.14-30,3.31l-30-29.155l30-29.155H377.499z"/>
	<path style="fill:#FFC5BB;" d="M347.499,300v58.31c-48.89,11-86.88,48.44-100.5,96.69h-39c-16.31-57.74-67.5-100-130.5-100v-55   H347.499z"/>
	<path style="fill:#FFA4A9;" d="M369.999,100c-7.69,0-15.21,0.7-22.5,2.05l-58.79,115.83h21.29c37.22,0,67.5-30.28,67.5-67.5V100   H369.999z"/>
	<path style="fill:#FFC5BB;" d="M347.499,102.05v48.33c0,37.22-26.37,67.5-58.79,67.5h-143.71c-37.22,0-67.5-30.28-67.5-67.5V100   h7.5c61.14,0,111.77,44.48,121.36,102.88h42.28C257.019,151.82,296.779,111.4,347.499,102.05z"/>
</g>















</svg>
