<?xml version="1.0" encoding="iso-8859-1"?>
<!-- Generator: Adobe Illustrator 19.0.0, SVG Export Plug-In . SVG Version: 6.00 Build 0)  -->
<svg version="1.1" id="Capa_1" xmlns="http://www.w3.org/2000/svg" xmlns:xlink="http://www.w3.org/1999/xlink" x="0px" y="0px"
	 viewBox="0 0 512 512" style="enable-background:new 0 0 512 512;" xml:space="preserve">
<path style="fill:#96C8EF;" d="M302.175,480.545c-8.649,6.479-17.753,12.875-27.332,19.179c-8.267,5.446-17.298,8.897-26.536,10.344
	c-15.955,2.511-32.509-0.94-46.81-10.344c-9.579-6.303-18.683-12.7-27.332-19.179C-21.406,334.038,16.363,147.54,31.811,95.532
	c2.594-8.701,8.577-15.676,16.327-19.034l126.026-54.643l37.748-16.368c16.874-7.316,35.64-7.316,52.514,0l16.513,7.161
	l21.235,9.207l126.026,54.643c7.75,3.358,13.733,10.333,16.327,19.034C459.976,147.54,497.745,334.038,302.175,480.545z"/>
<path style="fill:#C2DFF6;" d="M302.175,480.545c-8.649,6.479-17.753,12.875-27.332,19.179c-8.267,5.446-17.298,8.897-26.536,10.344
	c-8.525-5.673-16.668-11.429-24.439-17.257C28.298,346.314,66.066,159.806,81.515,107.809c2.594-8.701,8.577-15.676,16.327-19.044
	l126.026-54.633l37.748-16.368c6.252-2.707,12.751-4.412,19.323-5.115l21.235,9.207l126.026,54.643
	c7.75,3.358,13.733,10.333,16.327,19.034C459.976,147.54,497.745,334.038,302.175,480.545z"/>
<path style="fill:#A5001E;" d="M346.278,367.611c0,6.903-2.79,13.144-7.316,17.66c-4.516,4.516-10.767,7.316-17.66,7.316H155.037
	c-13.795,0-24.976-11.181-24.976-24.976c0-21.659,8.783-41.272,22.982-55.47c14.198-14.198,33.811-22.982,55.47-22.982h59.314
	C311.154,289.16,346.278,324.283,346.278,367.611z"/>
<path style="fill:#FF0C38;" d="M346.278,367.611c0,6.903-2.79,13.144-7.316,17.66c-4.516,4.516-10.767,7.316-17.66,7.316H182.348
	c-13.785,0-24.966-11.181-24.966-24.976c0-21.659,8.783-41.272,22.982-55.47s33.811-22.982,55.47-22.982h31.992
	C311.154,289.16,346.278,324.283,346.278,367.611z"/>
<g>
	<circle style="fill:#A5001E;" cx="238.168" cy="343.162" r="6.909"/>
	<circle style="fill:#A5001E;" cx="238.168" cy="368.366" r="6.909"/>
</g>
<path style="fill:#EE8700;" d="M338.997,216.783l-23.394-81.071c-0.709-2.456-0.188-5.131,1.475-7.072
	c5.928-6.926,9.358-15.642,9.358-24.888V91.767c0-10.856-9.545-19.738-21.211-19.738h-0.881c-9.457,0-17.52,5.837-20.234,13.832
	c-7.37-12.787-21.881-21.535-38.486-21.535h-51.248c-24.433,0-44.424,18.602-44.424,41.338v18.262v12.024l0,0
	c-0.048,3.479,1.45,6.158,3.798,8.13c2.382,2.001,3.245,5.291,2.376,8.277l-18.736,64.425c-5.066,17.422,2.978,36.005,19.179,44.175
	c15.521,7.828,38.997,15.284,73.152,16.661l17.737-0.033c33.725-1.458,56.959-8.861,72.36-16.626
	C336.019,252.787,344.063,234.205,338.997,216.783z"/>
<path style="fill:#FFC477;" d="M297.683,171.079v40.296c11.127,0,20.148-9.02,20.148-20.148
	C317.831,180.099,308.811,171.079,297.683,171.079z"/>
<path style="fill:#FFB655;" d="M300.53,105.693v97.597c0,24.298-15.029,45.241-36.26,54.02v41.549c0,10-5.972,18.673-14.539,22.616
	c-3.154,1.461-6.664,2.269-10.346,2.269h-1.914c-13.693,0-24.885-11.202-24.885-24.885v-40.49
	c-22.674-8.048-39.02-29.741-39.02-55.077v-97.597H300.53V105.693z"/>
<path style="fill:#FFC477;" d="M300.53,105.693v97.597c0,24.298-15.029,45.241-36.26,54.02v41.549c0,10-5.972,18.673-14.539,22.616
	c-8.567-3.933-14.548-12.615-14.548-22.616v-33.745c0-3.852-2.158-7.422-5.633-9.085c-19.699-9.419-33.387-29.554-33.387-52.739
	v-97.597C196.162,105.693,300.53,105.693,300.53,105.693z"/>
<path style="fill:#EE8700;" d="M257.812,212.292c-2.772,0-5.02,2.248-5.02,5.02c0,7.59-6.175,13.765-13.765,13.765
	c-7.59,0-13.765-6.174-13.765-13.765c0-2.772-2.248-5.02-5.02-5.02c-2.772,0-5.02,2.248-5.02,5.02
	c0,13.125,10.679,23.804,23.804,23.804c13.126,0,23.804-10.679,23.804-23.804C262.832,214.539,260.585,212.292,257.812,212.292z"/>
<g>
	<circle style="fill:#CC7400;" cx="211.374" cy="173.88" r="8.363"/>
	<circle style="fill:#CC7400;" cx="265.49" cy="173.88" r="8.363"/>
</g>
<path style="fill:#EE8700;" d="M326.437,91.771v11.976c0,2.997-0.362,5.942-1.054,8.794c-3.059,12.658-12.638,23.364-25.947,28.314
	l-3.916,1.457c-2.47,0.92-5.105-0.889-4.929-3.358c0.579-7.946-4.206-13.723-4.206-13.723c-3.916,9.558-15.138,12.307-21.928,13.092
	c-2.387,0.279-4.392-1.757-3.844-3.927c2.16-8.608-1.56-16.533-1.56-16.533c-14.332,16.389-41.84,24.046-62.889,27.601
	c-12.917,2.17-23.395,2.821-26.919,2.976c-0.775,0.041-1.54,0.062-2.325,0.031c-8.112-0.351-16.967-4.051-16.967-12.348v-30.453
	c0-14.415,8.029-27.167,20.14-34.576c6.985-4.278,15.345-6.768,24.284-6.768h51.254c16.606,0,31.114,8.752,38.482,21.535
	c2.707-7.998,10.778-13.826,20.223-13.826h0.889C316.889,72.034,326.437,80.911,326.437,91.771z"/>
<path style="fill:#FF9811;" d="M326.437,91.771v11.976c0,2.997-0.362,5.942-1.054,8.794c-2.191,1.302-4.536,2.418-7.016,3.338
	l-3.916,1.457c-2.47,0.92-5.105-0.889-4.929-3.358c0.568-7.946-4.206-13.723-4.206-13.723c-3.916,9.558-15.149,12.307-21.938,13.092
	c-2.377,0.279-4.381-1.757-3.834-3.927c2.16-8.608-1.56-16.533-1.56-16.533c-14.332,16.389-41.84,24.046-62.889,27.601
	c-12.917,2.17-23.395,2.821-26.919,2.976c-0.775,0.041-1.54,0.062-2.325,0.031c-8.112-0.351-16.967-4.051-16.967-12.359V80.683
	c0-3.296,0.424-6.51,1.209-9.589c6.985-4.278,15.345-6.768,24.284-6.768h51.254c16.606,0,31.114,8.752,38.482,21.535
	c2.707-7.998,10.778-13.826,20.223-13.826h0.889C316.889,72.034,326.437,80.911,326.437,91.771z"/>
<circle style="fill:#3D9AE2;" cx="390.762" cy="409.11" r="102.89"/>
<path style="fill:#5AAAE7;" d="M390.734,493.488c-20.308,0-39.95-7.341-55.305-20.669c-35.125-30.52-38.877-83.922-8.371-119.048
	c16.036-18.462,39.267-29.049,63.736-29.049c5.778,0,11.571,0.595,17.219,1.769c14.025,2.914,27.195,9.454,38.088,18.913
	c17.016,14.779,27.257,35.3,28.839,57.784c1.58,22.484-5.69,44.24-20.472,61.26c-12.224,14.078-28.314,23.51-46.527,27.275
	C402.304,492.894,396.509,493.488,390.734,493.488z"/>
<path style="fill:#96C8EF;" d="M440.425,452.252c-9.817,11.305-22.651,18.445-36.25,21.256c-19.417,4.03-40.424-0.734-56.555-14.735
	c-27.425-23.829-30.339-65.379-6.52-92.804c16.192-18.641,40.559-25.958,63.127-21.266c10.643,2.211,20.884,7.109,29.678,14.746
	C461.33,383.266,464.254,424.817,440.425,452.252z"/>
<path style="fill:#D1E7F8;" d="M440.425,452.252c-9.817,11.305-22.651,18.445-36.25,21.256
	c-10.643-2.211-20.894-7.099-29.688-14.735c-27.425-23.829-30.339-65.379-6.52-92.804c9.817-11.305,22.651-18.445,36.26-21.266
	c10.643,2.211,20.884,7.109,29.678,14.746C461.33,383.266,464.254,424.817,440.425,452.252z"/>
<path style="fill:#4CBA68;" d="M374.445,444.769c-3.868,0-7.63-1.489-10.45-4.167l-16.529-15.693
	c-3.104-2.947-3.231-7.852-0.284-10.957c2.949-3.104,7.853-3.23,10.958-0.284l16.266,15.443l40.451-50.168
	c2.689-3.332,7.566-3.855,10.899-1.169c3.333,2.687,3.854,7.566,1.169,10.898l-40.678,50.449c-2.648,3.287-6.585,5.333-10.798,5.614
	C375.111,444.757,374.777,444.769,374.445,444.769z"/>
<g>
</g>
<g>
</g>
<g>
</g>
<g>
</g>
<g>
</g>
<g>
</g>
<g>
</g>
<g>
</g>
<g>
</g>
<g>
</g>
<g>
</g>
<g>
</g>
<g>
</g>
<g>
</g>
<g>
</g>
</svg>
